<svg xmlns="http://www.w3.org/2000/svg" version="1.1" xmlns:xlink="http://www.w3.org/1999/xlink" xmlns:svgjs="http://svgjs.com/svgjs" width="1440" height="560" preserveAspectRatio="none" viewBox="0 0 1440 560"><g mask="url(&quot;#SvgjsMask1133&quot;)" fill="none"><path d="M1308.26,754.447C1363.237,753.768,1396.637,701.396,1425.226,654.433C1455.577,604.576,1490.364,548.925,1465.526,496.105C1437.947,437.457,1372.848,400.348,1308.26,405.696C1250.09,410.512,1215.915,466.364,1190.442,518.881C1168.836,563.425,1164.035,613.108,1186.18,657.386C1211.105,707.221,1252.544,755.135,1308.26,754.447" fill="rgba(238, 34, 17, 0.4)" class="triangle-float3"></path><path d="M1382.255737311993-37.88283043837593L1285.1363144169184 9.48547709026142 1332.5046219455558 106.60489998533608 1429.6240448406304 59.23659245669873z" fill="rgba(238, 34, 17, 0.4)" class="triangle-float2"></path><path d="M996.176,504.303C1013.597,504.482,1032.612,501.627,1041.669,486.744C1050.992,471.425,1046.434,452.168,1037.292,436.74C1028.356,421.661,1013.702,409.693,996.176,409.971C979.042,410.243,965.846,423.18,957.262,438.011C948.658,452.877,943.576,471.015,952.271,485.827C960.886,500.503,979.159,504.129,996.176,504.303" fill="rgba(238, 34, 17, 0.4)" class="triangle-float3"></path><path d="M1425.117,600.42C1463.178,600.406,1490.05,566.388,1507.057,532.338C1522.074,502.272,1523.695,466.909,1506.105,438.272C1489.27,410.864,1457.279,399.454,1425.117,398.938C1391.847,398.404,1356.925,407.253,1339.499,435.599C1321.375,465.081,1327.118,501.689,1343.071,532.4C1360.623,566.189,1387.041,600.434,1425.117,600.42" fill="rgba(238, 34, 17, 0.4)" class="triangle-float2"></path><path d="M1129.6716460710945 120.6927836798779L1254.8233491842518 195.8915134848031 1330.022078989177 70.73981037164573 1204.8703758760198-4.458919433279462z" fill="rgba(238, 34, 17, 0.4)" class="triangle-float3"></path><path d="M857.2436973610302 584.704816675174L939.655412768238 623.1340306912452 956.093376088741 480.30185057239817z" fill="rgba(238, 34, 17, 0.4)" class="triangle-float2"></path><path d="M1076.924,225.814C1109.072,226.37,1140.693,212.868,1157.307,185.34C1174.451,156.932,1173.041,121.73,1157.4,92.468C1140.741,61.303,1112.25,35.876,1076.924,34.957C1040.191,34.002,1005.619,55.387,988.857,88.086C973.316,118.403,982.864,153.938,1001.217,182.64C1017.99,208.872,1045.793,225.275,1076.924,225.814" fill="rgba(238, 34, 17, 0.4)" class="triangle-float3"></path><path d="M1212.3019405276016 487.22176272591804L1327.702510842861 417.88210461015757 1258.3628527271007 302.4815342948979 1142.962282411841 371.8211924106584z" fill="rgba(238, 34, 17, 0.4)" class="triangle-float2"></path><path d="M688.6099264720765 362.4655571976711L712.7904617615542 425.45800525873204 795.1888662084067 357.6909782939849z" fill="rgba(238, 34, 17, 0.4)" class="triangle-float1"></path></g><defs><mask id="SvgjsMask1133"><rect width="1440" height="560" fill="#ffffff"></rect></mask><style>
            @keyframes float1 {
                0%{transform: translate(0, 0)}
                50%{transform: translate(-10px, 0)}
                100%{transform: translate(0, 0)}
            }

            .triangle-float1 {
                animation: float1 2s infinite;
            }

            @keyframes float2 {
                0%{transform: translate(0, 0)}
                50%{transform: translate(-5px, -5px)}
                100%{transform: translate(0, 0)}
            }

            .triangle-float2 {
                animation: float2 4s infinite;
            }

            @keyframes float3 {
                0%{transform: translate(0, 0)}
                50%{transform: translate(0, -10px)}
                100%{transform: translate(0, 0)}
            }

            .triangle-float3 {
                animation: float3 6s infinite;
            }
        </style></defs></svg>