<svg xmlns="http://www.w3.org/2000/svg" version="1.1" xmlns:xlink="http://www.w3.org/1999/xlink" xmlns:svgjs="http://svgjs.com/svgjs" width="1440" height="560" preserveAspectRatio="none" viewBox="0 0 1440 560"><g mask="url(&quot;#SvgjsMask2241&quot;)" fill="none"><path d="M1560 560L0 560 L0 311.42Q34.09 225.51, 120 259.61Q193.38 213, 240 286.38Q316.19 242.56, 360 318.75Q389.68 276.43, 432 306.1Q476.69 230.79, 552 275.48Q641.65 245.13, 672 334.78Q727.32 318.1, 744 373.42Q773.03 282.45, 864 311.47Q901.35 228.82, 984 266.16Q1031.68 241.84, 1056 289.52Q1106.05 267.56, 1128 317.61Q1134.09 251.69, 1200 257.78Q1265.54 203.31, 1320 268.85Q1423.59 252.44, 1440 356.02Q1517.48 313.5, 1560 390.98z" fill="rgba(37, 70, 125, 1)"></path><path d="M1512 560L0 560 L0 421.3Q8.06 357.36, 72 365.42Q141.06 314.48, 192 383.53Q263.18 382.71, 264 453.89Q304.56 374.45, 384 415.01Q395.94 354.95, 456 366.9Q529.49 320.39, 576 393.88Q649.39 347.27, 696 420.67Q731.52 336.19, 816 371.71Q889.77 325.48, 936 399.25Q988.62 331.87, 1056 384.49Q1132.01 340.5, 1176 416.51Q1247.53 416.04, 1248 487.57Q1264.12 383.69, 1368 399.8Q1396.85 356.65, 1440 385.5Q1501.35 374.85, 1512 436.2z" fill="rgba(53, 108, 177, 1)"></path><path d="M1512 560L0 560 L0 542.12Q9.88 480, 72 489.88Q102.86 448.74, 144 479.6Q247.89 463.5, 264 567.39Q329.19 512.58, 384 577.76Q386.07 459.83, 504 461.89Q579.71 465.6, 576 541.31Q620.85 514.15, 648 559Q658.54 497.54, 720 508.09Q747.52 463.61, 792 491.12Q839.15 418.27, 912 465.43Q1006.18 439.62, 1032 533.8Q1101.22 483.02, 1152 552.24Q1174.73 454.97, 1272 477.7Q1323.94 409.64, 1392 461.58Q1483.16 432.74, 1512 523.9z" fill="rgba(255, 255, 255, 1)"></path></g><defs><mask id="SvgjsMask2241"><rect width="1440" height="560" fill="#ffffff"></rect></mask></defs></svg>