<svg xmlns="http://www.w3.org/2000/svg" version="1.1" xmlns:xlink="http://www.w3.org/1999/xlink" xmlns:svgjs="http://svgjs.com/svgjs" width="1440" height="560" preserveAspectRatio="none" viewBox="0 0 1440 560"><g mask="url(&quot;#SvgjsMask1096&quot;)" fill="none"><rect width="1440" height="560" x="0" y="0" fill="url(#SvgjsLinearGradient1097)"></rect><path d="M573 82L572 232" stroke-width="10" stroke="url(#SvgjsLinearGradient1098)" stroke-linecap="round" class="Down"></path><path d="M441 437L440 141" stroke-width="6" stroke="url(#SvgjsLinearGradient1098)" stroke-linecap="round" class="Down"></path><path d="M716 370L715 533" stroke-width="10" stroke="url(#SvgjsLinearGradient1098)" stroke-linecap="round" class="Down"></path><path d="M471 509L470 120" stroke-width="10" stroke="url(#SvgjsLinearGradient1099)" stroke-linecap="round" class="Down"></path><path d="M86 466L85 677" stroke-width="10" stroke="url(#SvgjsLinearGradient1100)" stroke-linecap="round" class="Up"></path><path d="M1434 221L1433 616" stroke-width="10" stroke="url(#SvgjsLinearGradient1100)" stroke-linecap="round" class="Up"></path><path d="M273 361L272 526" stroke-width="10" stroke="url(#SvgjsLinearGradient1101)" stroke-linecap="round" class="Up"></path><path d="M1048 390L1047 695" stroke-width="10" stroke="url(#SvgjsLinearGradient1098)" stroke-linecap="round" class="Down"></path><path d="M1169 237L1168 -79" stroke-width="6" stroke="url(#SvgjsLinearGradient1099)" stroke-linecap="round" class="Down"></path><path d="M1213 13L1212 -166" stroke-width="10" stroke="url(#SvgjsLinearGradient1100)" stroke-linecap="round" class="Up"></path><path d="M1378 76L1377 -137" stroke-width="8" stroke="url(#SvgjsLinearGradient1098)" stroke-linecap="round" class="Down"></path><path d="M698 388L697 79" stroke-width="10" stroke="url(#SvgjsLinearGradient1098)" stroke-linecap="round" class="Down"></path><path d="M227 39L226 -224" stroke-width="6" stroke="url(#SvgjsLinearGradient1101)" stroke-linecap="round" class="Up"></path><path d="M230 469L229 195" stroke-width="6" stroke="url(#SvgjsLinearGradient1098)" stroke-linecap="round" class="Down"></path><path d="M735 234L734 597" stroke-width="6" stroke="url(#SvgjsLinearGradient1101)" stroke-linecap="round" class="Up"></path><path d="M809 524L808 823" stroke-width="10" stroke="url(#SvgjsLinearGradient1099)" stroke-linecap="round" class="Down"></path><path d="M1287 375L1286 618" stroke-width="8" stroke="url(#SvgjsLinearGradient1099)" stroke-linecap="round" class="Down"></path><path d="M584 188L583 16" stroke-width="6" stroke="url(#SvgjsLinearGradient1099)" stroke-linecap="round" class="Down"></path><path d="M696 314L695 113" stroke-width="8" stroke="url(#SvgjsLinearGradient1098)" stroke-linecap="round" class="Down"></path><path d="M846 246L845 1" stroke-width="8" stroke="url(#SvgjsLinearGradient1098)" stroke-linecap="round" class="Down"></path><path d="M1370 215L1369 425" stroke-width="6" stroke="url(#SvgjsLinearGradient1099)" stroke-linecap="round" class="Down"></path><path d="M152 358L151 29" stroke-width="6" stroke="url(#SvgjsLinearGradient1100)" stroke-linecap="round" class="Up"></path><path d="M798 539L797 694" stroke-width="10" stroke="url(#SvgjsLinearGradient1101)" stroke-linecap="round" class="Up"></path><path d="M966 183L965 498" stroke-width="10" stroke="url(#SvgjsLinearGradient1100)" stroke-linecap="round" class="Up"></path><path d="M156 487L155 808" stroke-width="8" stroke="url(#SvgjsLinearGradient1099)" stroke-linecap="round" class="Down"></path><path d="M122 559L121 414" stroke-width="10" stroke="url(#SvgjsLinearGradient1101)" stroke-linecap="round" class="Up"></path><path d="M1259 555L1258 241" stroke-width="6" stroke="url(#SvgjsLinearGradient1099)" stroke-linecap="round" class="Down"></path><path d="M54 46L53 -164" stroke-width="8" stroke="url(#SvgjsLinearGradient1099)" stroke-linecap="round" class="Down"></path><path d="M1191 517L1190 887" stroke-width="10" stroke="url(#SvgjsLinearGradient1101)" stroke-linecap="round" class="Up"></path><path d="M681 416L680 574" stroke-width="6" stroke="url(#SvgjsLinearGradient1101)" stroke-linecap="round" class="Up"></path><path d="M1139 440L1138 144" stroke-width="6" stroke="url(#SvgjsLinearGradient1101)" stroke-linecap="round" class="Up"></path><path d="M1063 78L1062 -102" stroke-width="6" stroke="url(#SvgjsLinearGradient1100)" stroke-linecap="round" class="Up"></path><path d="M916 161L915 -250" stroke-width="8" stroke="url(#SvgjsLinearGradient1100)" stroke-linecap="round" class="Up"></path><path d="M547 3L546 -209" stroke-width="6" stroke="url(#SvgjsLinearGradient1099)" stroke-linecap="round" class="Down"></path><path d="M606 384L605 220" stroke-width="10" stroke="url(#SvgjsLinearGradient1099)" stroke-linecap="round" class="Down"></path><path d="M494 375L493 562" stroke-width="10" stroke="url(#SvgjsLinearGradient1100)" stroke-linecap="round" class="Up"></path></g><defs><mask id="SvgjsMask1096"><rect width="1440" height="560" fill="#ffffff"></rect></mask><linearGradient x1="15.28%" y1="-39.29%" x2="84.72%" y2="139.29%" gradientUnits="userSpaceOnUse" id="SvgjsLinearGradient1097"><stop stop-color="#0e2a47" offset="0"></stop><stop stop-color="#00459e" offset="1"></stop></linearGradient><linearGradient x1="0%" y1="0%" x2="0%" y2="100%" id="SvgjsLinearGradient1098"><stop stop-color="rgba(28, 83, 142, 0)" offset="0"></stop><stop stop-color="#1c538e" offset="1"></stop></linearGradient><linearGradient x1="0%" y1="0%" x2="0%" y2="100%" id="SvgjsLinearGradient1099"><stop stop-color="rgba(238, 34, 17, 0)" offset="0"></stop><stop stop-color="rgba(238, 34, 17, 1)" offset="1"></stop></linearGradient><linearGradient x1="0%" y1="100%" x2="0%" y2="0%" id="SvgjsLinearGradient1100"><stop stop-color="rgba(28, 83, 142, 0)" offset="0"></stop><stop stop-color="#1c538e" offset="1"></stop></linearGradient><linearGradient x1="0%" y1="100%" x2="0%" y2="0%" id="SvgjsLinearGradient1101"><stop stop-color="rgba(238, 34, 17, 0)" offset="0"></stop><stop stop-color="rgba(238, 34, 17, 1)" offset="1"></stop></linearGradient></defs></svg>