<svg xmlns="http://www.w3.org/2000/svg" version="1.1" xmlns:xlink="http://www.w3.org/1999/xlink" xmlns:svgjs="http://svgjs.com/svgjs" width="1440" height="560" preserveAspectRatio="none" viewBox="0 0 1440 560"><g mask="url(&quot;#SvgjsMask1043&quot;)" fill="none"><path d="M -204.78172410455247,376 C -147.18,321.4 -31.98,80.6 83.21827589544753,103 C 198.42,125.4 256.02,478.4 371.2182758954475,488 C 486.42,497.6 544.02,187.4 659.2182758954475,151 C 774.42,114.6 832.02,304 947.2182758954475,306 C 1062.42,308 1120.02,123 1235.2182758954475,161 C 1350.42,199 1482.26,492.8 1523.2182758954475,496 C 1564.17,499.2 1456.64,240.8 1440,177" stroke="rgba(28, 34, 83, 0.39)" stroke-width="2"></path><path d="M -306.0673101616598,375 C -248.47,351.4 -133.27,244.6 -18.06731016165982,257 C 97.13,269.4 154.73,443.4 269.9326898383402,437 C 385.13,430.6 442.73,211.6 557.9326898383401,225 C 673.13,238.4 730.73,515.6 845.9326898383401,504 C 961.13,492.4 1018.73,183 1133.9326898383401,167 C 1249.13,151 1360.72,429.2 1421.9326898383401,424 C 1483.15,418.8 1436.39,197.6 1440,141" stroke="rgba(28, 34, 83, 0.39)" stroke-width="2"></path><path d="M -11.538714250652845,194 C 46.06,254.8 161.26,514.4 276.46128574934716,498 C 391.66,481.6 449.26,111.8 564.4612857493471,112 C 679.66,112.2 737.26,489.8 852.4612857493471,499 C 967.66,508.2 1025.26,171.4 1140.461285749347,158 C 1255.66,144.6 1313.26,418 1428.461285749347,432 C 1543.66,446 1714.15,222 1716.461285749347,228 C 1718.77,234 1495.29,415.2 1440,462" stroke="rgba(28, 34, 83, 0.39)" stroke-width="2"></path><path d="M -45.926195650104205,281 C 11.67,244 126.87,75.6 242.0738043498958,96 C 357.27,116.4 414.87,382.4 530.0738043498958,383 C 645.27,383.6 702.87,115 818.0738043498958,99 C 933.27,83 990.87,271.4 1106.073804349896,303 C 1221.27,334.6 1278.87,244.6 1394.073804349896,257 C 1509.27,269.4 1672.89,392.2 1682.073804349896,365 C 1691.26,337.8 1488.41,169.8 1440,121" stroke="rgba(28, 34, 83, 0.39)" stroke-width="2"></path></g><defs><mask id="SvgjsMask1043"><rect width="1440" height="560" fill="#ffffff"></rect></mask></defs></svg>